<?xml version="1.0" encoding="utf-8"?>
<!-- Generator: Adobe Illustrator 21.0.0, SVG Export Plug-In . SVG Version: 6.00 Build 0)  -->
<svg version="1.1" id="Слой_1" xmlns="http://www.w3.org/2000/svg" xmlns:xlink="http://www.w3.org/1999/xlink" x="0px" y="0px"
	 viewBox="0 0 128 128" style="enable-background:new 0 0 128 128;" xml:space="preserve">
<style type="text/css">
	.st0{fill:#FFFFFF;}
</style>
<g>
	<g>
		<path class="st0" d="M83.1,22.5L83.1,22.5c7.7,0,14,6.3,14,14v54.9c0,7.7-6.3,14-14,14H44.9c-7.7,0-14-6.3-14-14v-7.1
			c0-1.7,1.4-3,3-3c1.7,0,3.1,1.4,3.1,3v7.1c0,4.3,3.5,7.9,7.8,7.9h38.2c4.3,0,7.9-3.6,7.9-7.9V36.5c0-4.3-3.5-7.9-7.9-7.9H44.9
			c-4.3,0-7.8,3.5-7.8,7.9v24.4h31.8l-6.7-6.7c-1.2-1.2-1.2-3.1,0-4.3s3.1-1.2,4.3,0l11.9,11.9c1.2,1.2,1.2,3.1,0,4.3L66.4,78.1
			c-0.6,0.6-1.4,0.9-2.1,0.9c-0.8,0-1.6-0.3-2.2-0.9c-1.2-1.2-1.2-3.1,0-4.3l6.7-6.7H34c-1.7,0-3-1.4-3-3V36.5c0-7.7,6.3-14,14-14
			H83.1z"/>
	</g>
</g>
</svg>
